<svg width="42" height="41" viewBox="0 0 42 41" fill="none" xmlns="http://www.w3.org/2000/svg">
<path d="M21.2772 40.5195C32.7221 40.5195 42 31.4489 42 20.2597C42 9.07059 32.7221 0 21.2772 0C9.83235 0 0.554443 9.07059 0.554443 20.2597C0.554443 31.4489 9.83235 40.5195 21.2772 40.5195Z" fill="#EAE6E3"/>
<path d="M22.8881 30.39V21.1624H26.0693L26.5469 17.5497H22.8881V15.2506C22.8881 14.206 23.1835 13.4977 24.7134 13.4977H26.6522V10.2767C26.3162 10.2332 25.1587 10.1343 23.8109 10.1343C20.9979 10.1343 19.0713 11.812 19.0713 14.8945V17.5536H15.9022V21.1663H19.0713V30.39H22.8881Z" fill="#647F95"/>
</svg>
