<svg width="43" height="41" viewBox="0 0 43 41" fill="none" xmlns="http://www.w3.org/2000/svg">
<path d="M21.4257 40.5195C32.8705 40.5195 42.1484 31.4489 42.1484 20.2597C42.1484 9.07059 32.8705 0 21.4257 0C9.98078 0 0.702881 9.07059 0.702881 20.2597C0.702881 31.4489 9.98078 40.5195 21.4257 40.5195Z" fill="#EAE6E3"/>
<path d="M21.4257 10.1299C18.6127 10.1299 18.2606 10.1418 17.1557 10.1892C16.0507 10.2407 15.302 10.4108 14.6422 10.6601C13.9623 10.9173 13.3835 11.2655 12.8047 11.8274C12.2259 12.3893 11.8738 12.9552 11.6107 13.6239C11.3557 14.2689 11.1817 15.0049 11.1291 16.0812C11.0765 17.1614 11.0684 17.5057 11.0684 20.2558C11.0684 23.0059 11.0805 23.3501 11.1291 24.4304C11.1817 25.5067 11.3557 26.2427 11.6107 26.8877C11.8738 27.5525 12.23 28.1183 12.8047 28.6842C13.3794 29.246 13.9582 29.5943 14.6422 29.8515C15.302 30.1007 16.0548 30.2709 17.1557 30.3223C18.2606 30.3738 18.6127 30.3817 21.4257 30.3817C24.2387 30.3817 24.5908 30.3698 25.6957 30.3223C26.7966 30.2709 27.5494 30.1007 28.2092 29.8515C28.8891 29.5943 29.4679 29.246 30.0467 28.6842C30.6214 28.1223 30.9776 27.5564 31.2407 26.8877C31.4957 26.2427 31.6697 25.5067 31.7223 24.4304C31.7749 23.3501 31.783 23.0059 31.783 20.2558C31.783 17.5057 31.7709 17.1614 31.7223 16.0812C31.6697 15.0049 31.4957 14.2689 31.2407 13.6239C30.9776 12.9591 30.6214 12.3933 30.0467 11.8274C29.472 11.2655 28.8932 10.9173 28.2092 10.6601C27.5494 10.4108 26.7966 10.2407 25.6957 10.1892C24.5908 10.1418 24.2387 10.1299 21.4257 10.1299ZM21.4257 11.954C24.1901 11.954 24.522 11.9659 25.6148 12.0134C26.6266 12.0609 27.173 12.2231 27.5373 12.3656C28.023 12.5476 28.367 12.7692 28.7313 13.1214C29.0915 13.4775 29.3182 13.8138 29.5043 14.2887C29.646 14.6448 29.816 15.179 29.8605 16.1682C29.9091 17.2366 29.9212 17.5571 29.9212 20.2637C29.9212 22.9703 29.9091 23.2908 29.8565 24.3592C29.8039 25.3484 29.6339 25.8826 29.4922 26.2387C29.2979 26.7136 29.0794 27.0499 28.7151 27.406C28.3549 27.7582 28.0028 27.9798 27.5252 28.1618C27.1609 28.3003 26.6064 28.4665 25.5945 28.51C24.4936 28.5575 24.1698 28.5694 21.3974 28.5694C18.6249 28.5694 18.3011 28.5575 17.2002 28.5061C16.1883 28.4546 15.6338 28.2885 15.2696 28.15C14.7798 27.96 14.4399 27.7463 14.0796 27.3902C13.7154 27.038 13.4847 26.6938 13.3025 26.2269C13.1609 25.8707 12.9909 25.3286 12.9383 24.3394C12.8978 23.275 12.8856 22.9465 12.8856 20.2518C12.8856 17.5532 12.8978 17.2247 12.9383 16.1484C12.9909 15.1592 13.1568 14.6171 13.3025 14.261C13.4847 13.7782 13.7154 13.4498 14.0796 13.0937C14.4399 12.7415 14.7798 12.512 15.2696 12.3339C15.6338 12.1954 16.1762 12.0292 17.1881 11.9778C18.289 11.9382 18.6127 11.9264 21.3852 11.9264L21.4257 11.954ZM21.4257 15.0563C18.4873 15.0563 16.1033 17.387 16.1033 20.2597C16.1033 23.1325 18.4873 25.4632 21.4257 25.4632C24.3641 25.4632 26.7481 23.1325 26.7481 20.2597C26.7481 17.387 24.3641 15.0563 21.4257 15.0563ZM21.4257 23.635C19.5194 23.635 17.9733 22.1235 17.9733 20.2597C17.9733 18.396 19.5194 16.8844 21.4257 16.8844C23.332 16.8844 24.8781 18.396 24.8781 20.2597C24.8781 22.1235 23.332 23.635 21.4257 23.635ZM28.2011 14.8545C28.2011 15.5272 27.6425 16.0693 26.9585 16.0693C26.2705 16.0693 25.716 15.5232 25.716 14.8545C25.716 14.1858 26.2745 13.6397 26.9585 13.6397C27.6425 13.6358 28.2011 14.1818 28.2011 14.8545Z" fill="#647F95"/>
</svg>
