<svg width="42" height="41" viewBox="0 0 42 41" fill="none" xmlns="http://www.w3.org/2000/svg">
<path d="M20.7237 40.6955C32.169 40.6955 41.4473 31.6245 41.4473 20.4349C41.4473 9.24529 32.169 0.174316 20.7237 0.174316C9.2783 0.174316 0 9.24529 0 20.4349C0 31.6245 9.2783 40.6955 20.7237 40.6955Z" fill="#EAE6E3"/>
<path d="M20.7115 10.3052C14.9963 10.3052 10.3618 14.8361 10.3618 20.4236C10.3618 24.7132 13.0899 28.3735 16.9392 29.8456C16.8501 29.0462 16.7692 27.8156 16.9756 26.941C17.1658 26.1496 18.1899 21.9115 18.1899 21.9115C18.1899 21.9115 17.8782 21.3021 17.8782 20.4078C17.8782 19.003 18.712 17.9504 19.7522 17.9504C20.6346 17.9504 21.0636 18.5994 21.0636 19.375C21.0636 20.2455 20.501 21.5435 20.2056 22.7464C19.9587 23.7555 20.7236 24.5746 21.7396 24.5746C23.5772 24.5746 24.9939 22.6792 24.9939 19.9408C24.9939 17.527 23.2129 15.8294 20.671 15.8294C17.7284 15.8294 16.0001 17.9939 16.0001 20.2178C16.0001 21.0884 16.3401 22.0262 16.7692 22.5328C16.8542 22.6356 16.8663 22.7227 16.842 22.8256C16.7651 23.1422 16.587 23.8386 16.5546 23.9771C16.5101 24.1671 16.4049 24.2066 16.2065 24.1156C14.9154 23.5339 14.1058 21.6859 14.1058 20.1941C14.1058 17.0046 16.4777 14.0724 20.9463 14.0724C24.5365 14.0724 27.3293 16.5773 27.3293 19.9171C27.3293 23.4073 25.0789 26.2169 21.946 26.2169C20.8977 26.2169 19.9141 25.6866 19.566 25.0535L18.9184 27.4594C18.6877 28.3419 18.0522 29.4459 17.6232 30.1147C18.5946 30.4075 19.6146 30.5658 20.6872 30.5658C26.3903 30.5658 31.0369 26.0348 31.0369 20.4473C31.0369 14.8559 26.3943 10.3289 20.6872 10.3289L20.7115 10.3052Z" fill="#647F95"/>
</svg>
