<svg width="9" height="18" viewBox="0 0 9 18" fill="none" xmlns="http://www.w3.org/2000/svg">
<mask id="path-1-inside-1_357_296" fill="white">
<path d="M8.63636 18C7.50222 18 6.37918 17.7672 5.33137 17.3149C4.28356 16.8626 3.33149 16.1997 2.52953 15.364C1.72757 14.5282 1.09142 13.5361 0.657403 12.4441C0.223386 11.3522 -3.0195e-07 10.1819 0 9C3.01951e-07 7.8181 0.223387 6.64778 0.657405 5.55585C1.09142 4.46392 1.72757 3.47176 2.52953 2.63604C3.3315 1.80031 4.28356 1.13737 5.33137 0.685083C6.37919 0.232791 7.50222 -5.77665e-07 8.63637 0L8.63636 9V18Z"/>
</mask>
<path d="M8.63636 18C7.50222 18 6.37918 17.7672 5.33137 17.3149C4.28356 16.8626 3.33149 16.1997 2.52953 15.364C1.72757 14.5282 1.09142 13.5361 0.657403 12.4441C0.223386 11.3522 -3.0195e-07 10.1819 0 9C3.01951e-07 7.8181 0.223387 6.64778 0.657405 5.55585C1.09142 4.46392 1.72757 3.47176 2.52953 2.63604C3.3315 1.80031 4.28356 1.13737 5.33137 0.685083C6.37919 0.232791 7.50222 -5.77665e-07 8.63637 0L8.63636 9V18Z" fill="#EBB64F" stroke="#EBB64F" stroke-width="2" mask="url(#path-1-inside-1_357_296)"/>
</svg>
