<svg width="43" height="41" viewBox="0 0 43 41" fill="none" xmlns="http://www.w3.org/2000/svg">
<path d="M21.2818 40.5212C32.7271 40.5212 42.0054 31.4502 42.0054 20.2606C42.0054 9.07098 32.7271 0 21.2818 0C9.8364 0 0.558105 9.07098 0.558105 20.2606C0.558105 31.4502 9.8364 40.5212 21.2818 40.5212Z" fill="#EAE6E3"/>
<path d="M28.6121 27.431H25.5359V22.722C25.5359 21.5982 25.5116 20.1538 23.933 20.1538C22.3302 20.1538 22.0833 21.3766 22.0833 22.6389V27.431H19.0071V17.7439H21.9619V19.0656H22.0023C22.4152 18.3058 23.419 17.5025 24.9166 17.5025C28.0333 17.5025 28.608 19.5088 28.608 22.1166L28.6121 27.431ZM15.5383 16.4183C14.5467 16.4183 13.7534 15.6348 13.7534 14.6732C13.7534 13.7116 14.5507 12.9281 15.5383 12.9281C16.526 12.9281 17.3233 13.7116 17.3233 14.6732C17.3233 15.6348 16.5219 16.4183 15.5383 16.4183ZM17.0805 27.431H13.9962V17.7439H17.0805V27.431ZM30.1501 10.1304H12.4541C11.6081 10.1304 10.92 10.7833 10.92 11.5945V28.9664C10.92 29.7737 11.6041 30.4305 12.4541 30.4305H30.1461C30.992 30.4305 31.6842 29.7776 31.6842 28.9664V11.5945C31.6842 10.7833 30.992 10.1304 30.1501 10.1304Z" fill="#647F95"/>
</svg>
